<svg width="227" height="238" viewBox="0 0 227 238" fill="none" xmlns="http://www.w3.org/2000/svg">
<path fill-rule="evenodd" clip-rule="evenodd" d="M99.5358 92.9968C97.3705 88.1941 93.5655 84.3627 87.7202 82.1408C69.638 75.268 54.8754 82.3276 43.6657 95.4574C27.2983 114.63 18.6391 146.915 18.3162 165.974C18.2999 166.877 19.0205 167.619 19.9199 167.633C20.8225 167.649 21.5675 166.931 21.5839 166.028C21.8961 147.53 30.2676 116.185 46.1511 97.5765C56.4442 85.521 69.9527 78.882 86.56 85.1967C91.504 87.0726 94.7041 90.3167 96.5454 94.3727C93.9133 95.6167 91.351 96.9187 88.8643 98.278C82.001 102.032 66.2227 114.935 58.8575 127.63C53.5766 136.738 52.6194 145.727 60.9084 151.66C65.5164 154.956 70.9128 154.615 76.2994 151.651C83.7074 147.581 91.1511 138.388 96.0515 127.891C100.133 119.152 102.453 109.53 101.651 101.287C101.471 99.4761 101.15 97.7285 100.664 96.0685C137.496 79.5081 186.189 74.8097 224.091 85.9726C224.955 86.2237 225.864 85.7331 226.118 84.8653C226.375 83.9999 225.878 83.0917 225.016 82.8372C186.495 71.4952 137.035 76.2176 99.5358 92.9968ZM97.6495 97.4625C95.1785 98.6371 92.7708 99.8648 90.4321 101.145C83.8564 104.744 68.7415 117.105 61.6854 129.268C57.354 136.733 56.0165 144.142 62.8097 149.004C66.3789 151.556 70.5532 151.081 74.7266 148.791C79.3149 146.267 83.8739 141.596 87.768 135.885C93.6802 127.213 98.0472 116.137 98.5019 106.302C98.6475 103.186 98.3927 100.196 97.6495 97.4625Z" fill="black"/>
<path fill-rule="evenodd" clip-rule="evenodd" d="M168.535 110.983C182.751 97.6516 205.106 88.9205 224.444 85.7945C225.334 85.6508 225.938 84.8109 225.795 83.9216C225.651 83.0322 224.814 82.4242 223.924 82.5679C203.981 85.7893 180.958 94.8571 166.302 108.599C165.645 109.214 165.612 110.248 166.23 110.907C166.844 111.564 167.879 111.597 168.535 110.983Z" fill="black"/>
<path fill-rule="evenodd" clip-rule="evenodd" d="M223.965 82.1655C207.874 80.0782 189.97 67.9225 179.869 55.1639C179.309 54.4558 178.28 54.3333 177.575 54.8958C176.867 55.4557 176.747 56.4815 177.307 57.1897C187.89 70.5555 206.687 83.2173 223.545 85.4044C224.438 85.5221 225.259 84.8877 225.377 83.9946C225.491 83.0989 224.86 82.2799 223.965 82.1655Z" fill="black"/>
</svg>
