<svg width="400" height="400" viewBox="0 0 400 400" fill="none" xmlns="http://www.w3.org/2000/svg">
<rect width="400" height="400" rx="80" fill="#1A1A1A"/>
<path d="M73.2702 101.847L123.59 85C123.59 97.2411 128.432 108.981 137.05 117.637C145.668 126.292 157.357 131.155 169.545 131.155C181.733 131.155 193.421 126.292 202.039 117.637C210.657 108.981 215.499 97.2411 215.499 85L265.819 101.847C271.019 103.587 275.428 107.136 278.251 111.855C281.074 116.573 282.125 122.15 281.214 127.578L274.55 167.618C274.113 170.328 272.727 172.793 270.643 174.57C268.558 176.347 265.911 177.318 263.177 177.31H238.476V292.698C238.476 305.391 228.136 315.776 215.499 315.776H123.59C117.496 315.776 111.652 313.344 107.343 309.016C103.034 304.689 100.613 298.819 100.613 292.698V177.31H75.9126C73.1785 177.318 70.5313 176.347 68.4466 174.57C66.3619 172.793 64.9763 170.328 64.5389 167.618L57.8755 127.578C56.9642 122.15 58.0148 116.573 60.8378 111.855C63.6608 107.136 68.0703 103.587 73.2702 101.847Z" stroke="#FAFAFA" stroke-width="10" stroke-linecap="round" strokeLinejoin="round"/>
<path d="M133.737 101.847L184.057 85C184.057 97.2411 188.898 108.981 197.516 117.637C206.134 126.292 217.823 131.155 230.011 131.155C242.199 131.155 253.887 126.292 262.506 117.637C271.124 108.981 275.965 97.2411 275.965 85L326.285 101.847C331.485 103.587 335.895 107.136 338.718 111.855C341.541 116.573 342.591 122.15 341.68 127.578L335.017 167.618C334.579 170.328 333.194 172.793 331.109 174.57C329.024 176.347 326.377 177.318 323.643 177.31H298.943V292.698C298.943 305.391 288.603 315.776 275.965 315.776H184.057C177.963 315.776 172.118 313.344 167.809 309.016C163.5 304.689 161.079 298.819 161.079 292.698V177.31H136.379C133.645 177.318 130.998 176.347 128.913 174.57C126.828 172.793 125.443 170.328 125.005 167.618L118.342 127.578C117.43 122.15 118.481 116.573 121.304 111.855C124.127 107.136 128.537 103.587 133.737 101.847Z" stroke="#FAFAFA" stroke-width="10" stroke-linecap="round" strokeLinejoin="round"/>
</svg>
